# xmcd
#
# Track frame offsets: 
#        182
#        58745
#        83945
#        121182
#        136732
#        170800
#
# Disc length: 2935 seconds
#
# Revision: 9
# Processed by: cddbd v1.5.2PL0 Copyright (c) Steve Scherf et al.
# Submitted via: ExactAudioCopy v1.0b3
#
DISCID=4d0b7506
DTITLE=Dire Straits - Alchemy  CD1
DYEAR=1984
DGENRE=Rock
TTITLE0=Once Upon A Time In The West
TTITLE1=Expresso Love
TTITLE2=Romeo And Juliet
TTITLE3=Love Over Gold
TTITLE4=Private Investigations
TTITLE5=Sultans Of Swing
EXTD=AVM YEAR: 1984
EXTT0=
EXTT1=
EXTT2=
EXTT3=
EXTT4=
EXTT5=
PLAYORDER=
